Coordinates
version=1
nRows=12
nColumns=48
inDegrees=yes

Units are S.I. units (second, meters, Newtons, ...)
Angles are in degrees.

endheader
time	pelvis_tilt	pelvis_list	pelvis_rotation	pelvis_tx	pelvis_ty	pelvis_tz	hip_flexion_r	hip_adduction_r	hip_rotation_r	knee_angle_r	knee_adduction_r	knee_rotation_r	knee_anterior_posterior_r	knee_inferior_superior_r	knee_medial_lateral_r	ankle_angle_r	subtalar_angle_r	mtp_angle_r	hip_flexion_l	hip_adduction_l	hip_rotation_l	knee_angle_l	knee_adduction_l	knee_rotation_l	knee_anterior_posterior_l	knee_inferior_superior_l	knee_medial_lateral_l	ankle_angle_l	subtalar_angle_l	mtp_angle_l	lumbar_extension	lumbar_bending	lumbar_rotation	arm_flex_r	arm_add_r	arm_rot_r	elbow_flex_r	pro_sup_r	wrist_flex_r	wrist_dev_r	arm_flex_l	arm_add_l	arm_rot_l	elbow_flex_l	pro_sup_l	wrist_flex_l	wrist_dev_l
      0.98000000	    -11.98487596	      1.60452139	      4.82774573	     -1.09732163	      0.91300379	      0.21956964	     34.24483694	      0.50879911	     -2.39852807	    -50.99699430	      0.98440452	      4.11446608	      0.01490586	     -0.40000000	      0.00000000	     12.42835787	      0.00000000	      0.00000000	     45.21712029	     -1.98542867	     -9.64013473	   -108.08745699	      0.98440452	      4.11446608	      0.00000000	     -0.40000000	      0.00000000	    -14.34821869	      0.00000000	      0.00000000	    -26.23768809	      6.18540342	     -0.60180679	     -5.31377138	    -20.56937063	     29.78157697	     41.31547130	     70.36599620	      0.00000000	      0.00000000	      8.14437005	    -15.34770560	     27.66778943	     56.76006588	     83.66089871	      0.00000000	      0.00000000
      0.99000000	    -11.85132432	      1.46284183	      4.82837580	     -1.09412168	      0.90771696	      0.21946298	     34.57773269	      1.14301798	     -1.57937718	    -52.32596357	      0.98440452	      4.11446608	      0.01495940	     -0.40000000	      0.00000000	     13.79095289	      0.00000000	      0.00000000	     45.44312857	     -1.99846695	     -9.42726959	   -107.94369344	      0.98440452	      4.11446608	      0.00000000	     -0.40000000	      0.00000000	    -13.96232863	      0.00000000	      0.00000000	    -26.36985278	      6.43278390	     -0.21875278	     -3.58723885	    -20.90713038	     32.81463280	     39.10315748	     69.80847817	      0.00000000	      0.00000000	      9.88154037	    -15.22851594	     29.98977240	     55.33410978	     84.41642984	      0.00000000	      0.00000000
      1.00000000	    -11.57031162	      1.23979249	      4.93434812	     -1.09056365	      0.90297615	      0.21908554	     34.62998880	      1.78645131	     -1.04293899	    -53.48872888	      0.98440452	      4.11446608	      0.01499259	     -0.40000000	      0.00000000	     15.01772176	      0.00000000	      0.00000000	     45.62482227	     -1.99469191	     -9.06182322	   -107.78213512	      0.98440452	      4.11446608	      0.00000000	     -0.40000000	      0.00000000	    -13.64064227	      0.00000000	      0.00000000	    -26.56860183	      6.82847804	      0.07092339	     -1.69840251	    -20.97240667	     35.64207116	     36.44587455	     67.91395094	      0.00000000	      0.00000000	     11.42866124	    -14.59532497	     31.36393543	     53.51526539	     84.66957021	      0.00000000	      0.00000000
      1.01000000	    -11.21785132	      1.08456509	      5.10455003	     -1.08661082	      0.89863419	      0.21847132	     34.53503945	      2.31374457	     -0.63923642	    -54.56922285	      0.98440452	      4.11446608	      0.01501377	     -0.40000000	      0.00000000	     16.00306377	      0.00000000	      0.00000000	     45.90540578	     -1.84924860	     -8.65257741	   -107.65738136	      0.98440452	      4.11446608	      0.00000000	     -0.40000000	      0.00000000	    -13.25067213	      0.00000000	      0.00000000	    -26.79609381	      7.18302523	      0.11684318	      0.68918120	    -21.28096379	     40.66533326	     33.79998817	     60.91492362	      0.00000000	      0.00000000	     12.50593819	    -13.90135690	     31.73544348	     52.01286712	     84.76009077	      0.00000000	      0.00000000
      1.02000000	    -10.86164222	      0.83661920	      5.26884109	     -1.08246040	      0.89453099	      0.21807665	     34.37280069	      2.93860552	     -0.30709440	    -55.53895116	      0.98440452	      4.11446608	      0.01502773	     -0.40000000	      0.00000000	     16.88002386	      0.00000000	      0.00000000	     46.43009874	     -1.83679900	     -8.19354142	   -107.59700614	      0.98440452	      4.11446608	      0.00000000	     -0.40000000	      0.00000000	    -12.82007672	      0.00000000	      0.00000000	    -26.96344756	      7.62489635	      0.45061824	      2.16056963	    -20.71313534	     40.90331849	     30.78207104	     60.47491210	      0.00000000	      0.00000000	     13.80353908	    -13.02302342	     32.15569007	     50.16077330	     84.97078215	      0.00000000	      0.00000000
      1.03000000	    -10.25007164	      0.64531890	      5.36512692	     -1.07779481	      0.89131120	      0.21779186	     33.77835113	      3.59264900	      0.21194276	    -56.33003552	      0.98440452	      4.11446608	      0.01507083	     -0.40000000	      0.00000000	     17.91980598	      0.00000000	      0.00000000	     46.83334823	     -1.91099119	     -7.79815008	   -107.54982756	      0.98440452	      4.11446608	      0.00000000	     -0.40000000	      0.00000000	    -12.51007057	      0.00000000	      0.00000000	    -27.32350964	      7.97103487	      0.54058795	      5.29505334	    -20.47516874	     48.37659179	     26.70774781	     51.55197797	      0.00000000	      0.00000000	     15.18599553	    -12.85469905	     33.49445948	     48.81885433	     85.39124878	      0.00000000	      0.00000000
      1.04000000	     -9.80446149	      0.43476035	      5.75010572	     -1.07297939	      0.88829693	      0.21697521	     33.34287334	      3.92369723	      0.34803526	    -57.12997276	      0.98440452	      4.11446608	      0.01509440	     -0.40000000	      0.00000000	     18.44837050	      0.00000000	      0.00000000	     47.66723706	     -1.69208468	     -7.18152831	   -107.49336474	      0.98440452	      4.11446608	      0.00000000	     -0.40000000	      0.00000000	    -12.01217847	      0.00000000	      0.00000000	    -27.43229663	      8.47573261	      0.71340207	      6.81626788	    -19.49755279	     48.02757936	     22.99205089	     50.76635687	      0.00000000	      0.00000000	     16.34213976	    -12.11320704	     33.57460734	     47.38535699	     85.58301852	      0.00000000	      0.00000000
      1.05000000	     -9.03006876	      0.17104577	      6.03535602	     -1.06753227	      0.88629624	      0.21673980	     32.43723897	      4.28284978	      0.25710816	    -57.74355112	      0.98440452	      4.11446608	      0.01509214	     -0.40000000	      0.00000000	     19.09198949	      0.00000000	      0.00000000	     48.22468232	     -1.79082974	     -6.54379561	   -107.38948283	      0.98440452	      4.11446608	      0.00000000	     -0.40000000	      0.00000000	    -11.24571193	      0.00000000	      0.00000000	    -27.82822332	      8.92623010	      0.39978893	     10.58982682	    -18.50875388	     60.95829320	     18.02753336	     34.62945491	      0.00000000	      0.00000000	     17.12077336	    -12.31947362	     33.69237187	     47.22105420	     86.12991364	      0.00000000	      0.00000000
      1.06000000	     -8.50498292	      0.14303266	      6.32666880	     -1.06226325	      0.88438582	      0.21614973	     31.71674445	      4.27612361	      0.06817582	    -58.19557024	      0.98440452	      4.11446608	      0.01509568	     -0.40000000	      0.00000000	     19.48345755	      0.00000000	      0.00000000	     49.19895492	     -1.57853516	     -6.11186478	   -107.25142737	      0.98440452	      4.11446608	      0.00000000	     -0.40000000	      0.00000000	    -10.51851066	      0.00000000	      0.00000000	    -27.96696211	      9.17098196	      0.32409128	     12.23434198	    -17.19641904	     60.25974336	     14.47957898	     33.78192974	      0.00000000	      0.00000000	     17.74372547	    -12.50845394	     33.44388016	     47.69326064	     86.20887021	      0.00000000	      0.00000000
      1.07000000	     -7.95345743	      0.12803216	      6.39801977	     -1.05659062	      0.88277125	      0.21619241	     30.91214582	      4.23212712	     -0.38331118	    -58.57282380	      0.98440452	      4.11446608	      0.01509964	     -0.40000000	      0.00000000	     20.02219194	      0.00000000	      0.00000000	     50.27597730	     -1.74047946	     -5.88436736	   -107.11815207	      0.98440452	      4.11446608	      0.00000000	     -0.40000000	      0.00000000	     -9.77534256	      0.00000000	      0.00000000	    -28.09814452	      9.24137798	      0.31086861	     14.06898445	    -15.84785625	     59.97565185	     11.21971823	     33.10540735	      0.00000000	      0.00000000	     18.00584184	    -13.25127904	     32.94831527	     49.48193466	     86.35872221	      0.00000000	      0.00000000
      1.08000000	     -7.43094838	      0.24522573	      6.29021924	     -1.05068805	      0.88191630	      0.21611387	     29.92184996	      4.09854259	     -0.67748408	    -58.60547581	      0.98440452	      4.11446608	      0.01511617	     -0.40000000	      0.00000000	     20.89391293	      0.00000000	      0.00000000	     51.34536422	     -1.83535347	     -5.79942873	   -106.82670014	      0.98440452	      4.11446608	      0.00000000	     -0.40000000	      0.00000000	     -8.91476321	      0.00000000	      0.00000000	    -28.21749575	      9.16996499	      0.05682345	     16.50392275	    -14.31661088	     60.55435262	      8.19519815	     32.58319762	      0.00000000	      0.00000000	     17.22872717	    -14.01724247	     30.49473584	     52.57137581	     86.30368893	      0.00000000	      0.00000000
      1.09000000	     -6.96430809	      0.49936725	      5.93189982	     -1.04453713	      0.88124756	      0.21631939	     28.94274652	      3.87695017	     -0.82812693	    -58.62316079	      0.98440452	      4.11446608	      0.01512849	     -0.40000000	      0.00000000	     21.50011980	      0.00000000	      0.00000000	     52.59184658	     -2.04973858	     -5.95377681	   -106.59724416	      0.98440452	      4.11446608	      0.00000000	     -0.40000000	      0.00000000	     -8.48483299	      0.00000000	      0.00000000	    -28.27625142	      8.79956323	      0.02040040	     19.02981608	    -13.35781638	     62.82419789	      6.77861854	     32.49354390	      0.00000000	      0.00000000	     15.92817793	    -15.24502872	     27.95182269	     57.21396457	     86.83406745	      0.00000000	      0.00000000
